# xmcd CD database file
#
# Track frame offsets:
#	182
#	14500
#	25477
#	37620
#	50295
#	62107
#	72725
#	89262
#	100995
#	113132
#	126237
#	136877
#	146710
#	158980
#	161857
#	173800
#	186935
#	196485
#	209157
#	222225
#
# Disc length: 3147 seconds
#
# Revision: 0
# Processed by: cddbd v1.4PL0 Copyright (c) Steve Scherf et al.
# Submitted via: CDex 1.50Beta3
#
DISCID=340c4914
DTITLE=Freddy Fender - greatest hits
DYEAR=1900
DGENRE=Country
TTITLE0=Wasted Days and Wasted Nights
TTITLE1=The Rain Came
TTITLE2=You'll Lose A Good Thing
TTITLE3=Almost Persuaded
TTITLE4=I'm Leaving It Up To You
TTITLE5=A Man Can Cry
TTITLE6=Wild Side Of Life
TTITLE7=She's About a mover
TTITLE8=crazy baby
TTITLE9=girl who waits on tables
TTITLE10=before the next teardrop falls
TTITLE11=mathilda
TTITLE12=lovin' cajun style
TTITLE13=what'd i say
TTITLE14=sweet summer day
TTITLE15=silver wings
TTITLE16=running back
TTITLE17=enter my heart
TTITLE18=going out with the tide
TTITLE19=baby i want to love you
EXTD=
EXTT0=
EXTT1=
EXTT2=
EXTT3=
EXTT4=
EXTT5=
EXTT6=
EXTT7=
EXTT8=
EXTT9=
EXTT10=
EXTT11=
EXTT12=
EXTT13=
EXTT14=
EXTT15=
EXTT16=
EXTT17=
EXTT18=
EXTT19=
PLAYORDER=
